Coordinates
version=1
nRows=11
nColumns=40
inDegrees=yes

Units are S.I. units (second, meters, Newtons, ...)
If the header above contains a line with 'inDegrees', this indicates whether rotational values are in degrees (yes) or radians (no).

endheader
time	pelvis_tilt	pelvis_list	pelvis_rotation	pelvis_tx	pelvis_ty	pelvis_tz	hip_flexion_r	hip_adduction_r	hip_rotation_r	knee_angle_r	knee_angle_r_beta	ankle_angle_r	subtalar_angle_r	mtp_angle_r	hip_flexion_l	hip_adduction_l	hip_rotation_l	knee_angle_l	knee_angle_l_beta	ankle_angle_l	subtalar_angle_l	mtp_angle_l	lumbar_extension	lumbar_bending	lumbar_rotation	arm_flex_r	arm_add_r	arm_rot_r	elbow_flex_r	pro_sup_r	wrist_flex_r	wrist_dev_r	arm_flex_l	arm_add_l	arm_rot_l	elbow_flex_l	pro_sup_l	wrist_flex_l	wrist_dev_l
     11.65000000	    -25.82616655	     -4.44106864	      2.91147427	     -0.30385898	      1.19642351	      0.04209318	     73.31952938	     -7.35443108	     -2.18532027	     90.89288352	      1.58638008	     -5.71371041	    -17.85910983	      0.00000000	     69.03212932	     -3.31653111	     10.25741096	     47.58123927	      0.83044929	     -6.76792376	    -12.35366266	      0.00000000	    -52.43011166	     10.05339869	      2.71179825	     89.90503863	     -8.03956306	     12.07045237	     41.77802261	     86.28019039	      0.00000000	      0.00000000	     89.92928831	    -11.26927786	     25.08333656	     33.60155914	     74.79282042	      0.00000000	      0.00000000
     11.65833333	    -25.82944000	     -4.94007389	      2.50106169	     -0.30363858	      1.19615173	      0.04272974	     74.99821626	     -7.06185931	     -2.43731952	     93.20487875	      1.62673201	     -4.77965450	    -18.01479624	      0.00000000	     66.97734328	     -4.22708101	     10.43255344	     44.76034236	      0.78121535	     -7.91806937	    -12.18381498	      0.00000000	    -52.48803400	     10.27364873	      3.43368340	     89.90694734	     -7.98093655	     12.11098769	     41.85140445	     86.39789299	      0.00000000	      0.00000000	     89.92760925	    -11.25692595	     25.13027768	     33.21250687	     74.80200627	      0.00000000	      0.00000000
     11.66666667	    -25.74738340	     -5.38882860	      2.10307140	     -0.30315172	      1.19587043	      0.04342059	     76.59035181	     -6.83230354	     -2.71713570	     95.39473025	      1.66495213	     -3.98924762	    -17.96430628	      0.00000000	     64.95334298	     -5.10555438	     10.48214767	     42.24840501	      0.73737377	     -8.99319618	    -12.10348562	      0.00000000	    -52.62193522	     10.45105223	      4.11729731	     89.90911301	     -7.93552369	     12.20383067	     41.85708380	     86.48098525	      0.00000000	      0.00000000	     89.92499050	    -11.24413947	     25.21979724	     32.88933190	     74.80062303	      0.00000000	      0.00000000
     11.67500000	    -25.52307114	     -5.12956286	      1.54967070	     -0.30239618	      1.19603026	      0.04375926	     78.12517529	     -6.77213448	     -2.20695192	     97.45988523	      1.70099589	     -2.11829331	    -17.46908748	      0.00000000	     62.63774969	     -5.64678497	      9.90135898	     39.83469267	      0.69524654	    -10.85961275	    -12.89586794	      0.00000000	    -52.88790684	     10.02779767	      4.31025777	     89.90870070	     -7.89061918	     12.34968472	     42.07929349	     86.46132355	      0.00000000	      0.00000000	     89.92380446	    -11.27958262	     25.26865078	     32.69998813	     74.58702375	      0.00000000	      0.00000000
     11.68333333	    -25.60924775	     -5.57043673	      1.26061380	     -0.30195985	      1.19586575	      0.04421264	     79.77474476	     -6.65675795	     -2.56063749	     99.15353214	      1.73055560	     -0.99676755	    -17.63800983	      0.00000000	     60.89435744	     -6.40103942	      9.86764695	     37.66429710	      0.65736599	    -11.78086481	    -12.84552313	      0.00000000	    -52.86831227	     10.30321320	      4.89289582	     89.91123345	     -7.84966759	     12.44481918	     42.09326254	     86.56504016	      0.00000000	      0.00000000	     89.92099209	    -11.29384649	     25.38098690	     32.32428850	     74.57496445	      0.00000000	      0.00000000
     11.69166667	    -25.72420932	     -5.90983114	      0.94411598	     -0.30154542	      1.19592407	      0.04467521	     81.39422098	     -6.56145740	     -2.85308165	    100.58102650	      1.75547008	      0.41043006	    -17.73148741	      0.00000000	     59.24680286	     -7.11814398	      9.68734893	     35.68027100	      0.62273821	    -13.02861280	    -12.80297048	      0.00000000	    -52.84867323	     10.48854523	      5.41032002	     89.91271163	     -7.81814455	     12.59912560	     42.20860920	     86.59616061	      0.00000000	      0.00000000	     89.91903668	    -11.31568807	     25.48451173	     32.00308863	     74.52440916	      0.00000000	      0.00000000
     11.70000000	    -25.82089409	     -5.50663819	      0.69857924	     -0.30107602	      1.19616565	      0.04448958	     83.11150163	     -6.86829941	     -2.33402091	    101.91121720	      1.77868628	      2.16375001	    -16.52791341	      0.00000000	     57.42302635	     -7.16073919	      9.18529497	     33.73424945	      0.58877372	    -14.89344155	    -13.92869844	      0.00000000	    -52.76984707	     10.21875693	      5.26348871	     89.91365092	     -7.81577506	     12.85621999	     42.38211461	     86.51075035	      0.00000000	      0.00000000	     89.91754888	    -11.39133150	     25.67156161	     31.84724870	     74.00534191	      0.00000000	      0.00000000
     11.70833333	    -26.01562842	     -5.84852527	      0.52051558	     -0.30064437	      1.19637016	      0.04494506	     84.58527586	     -6.89382032	     -2.74691932	    102.72094140	      1.79281864	      3.27350958	    -16.81857359	      0.00000000	     56.11266393	     -7.74716011	      9.00827566	     32.35587649	      0.56471658	    -15.56740903	    -13.86421352	      0.00000000	    -52.67264417	     10.48875277	      5.67113060	     89.91524131	     -7.76513058	     12.98207010	     42.42484525	     86.59235566	      0.00000000	      0.00000000	     89.91596557	    -11.42133825	     25.75073457	     31.54398160	     73.97443963	      0.00000000	      0.00000000
     11.71666667	    -26.34680067	     -6.06544603	      0.24704797	     -0.30047614	      1.19672681	      0.04534019	     86.14554485	     -6.77222012	     -2.92474830	    103.22232206	      1.80156938	      4.50195981	    -16.76913140	      0.00000000	     55.04159494	     -8.29899614	      8.70397560	     31.23406380	      0.54513725	    -16.61985535	    -13.92802644	      0.00000000	    -52.47155142	     10.61637484	      6.04079532	     89.91697999	     -7.79110305	     13.23390050	     42.60736107	     86.60351748	      0.00000000	      0.00000000	     89.91418102	    -11.46077740	     25.84297233	     31.37725218	     73.80746922	      0.00000000	      0.00000000
     11.72500000	    -26.68100684	     -6.21416883	      0.11610774	     -0.30026141	      1.19714581	      0.04551449	     87.56944911	     -6.86907055	     -3.13809620	    103.39859856	      1.80464599	      5.44204964	    -16.88830460	      0.00000000	     54.02072643	     -8.57582003	      8.87778987	     30.33461705	      0.52943894	    -16.98186851	    -14.07880292	      0.00000000	    -52.25341600	     10.79708406	      6.24326688	     89.91860181	     -7.75413442	     13.36556777	     42.71279554	     86.62535659	      0.00000000	      0.00000000	     89.91335144	    -11.49848534	     25.83600739	     31.35674281	     73.64023828	      0.00000000	      0.00000000
     11.73333333	    -26.95987374	     -6.35961611	      0.05527416	     -0.30001354	      1.19770887	      0.04554445	     88.80255163	     -6.98268821	     -3.32671322	    103.24579331	      1.80197903	      6.21907942	    -17.06395427	      0.00000000	     53.19648323	     -8.82619930	      8.75033339	     29.93859820	      0.52252711	    -16.94818430	    -14.28950487	      0.00000000	    -52.09203855	     11.02747046	      6.40390828	     89.92049846	     -7.69473888	     13.43207181	     42.81017473	     86.66736253	      0.00000000	      0.00000000	     89.91228993	    -11.58084849	     25.90275938	     31.29597344	     73.53761824	      0.00000000	      0.00000000
